<?xml version="1.0" standalone="no"?><!DOCTYPE svg PUBLIC "-//W3C//DTD SVG 1.1//EN" "http://www.w3.org/Graphics/SVG/1.1/DTD/svg11.dtd"><svg t="1539066608752" class="icon" style="" viewBox="0 0 1024 1024" version="1.1" xmlns="http://www.w3.org/2000/svg" p-id="7566" xmlns:xlink="http://www.w3.org/1999/xlink" width="64" height="64"><defs><style type="text/css"></style></defs><path d="M966.981818 982.109091c0-18.618182-2.327273-39.563636-6.981818-58.181818-6.981818-39.563636-18.618182-76.8-34.909091-114.036364-30.254545-62.836364-72.145455-116.363636-125.672727-160.581818-41.890909-34.909091-90.763636-60.509091-141.963636-76.8-2.327273 0-6.981818-2.327273-9.309091-2.327273 0 0 2.327273 0 2.327273 0 23.272727-11.636364 44.218182-25.6 65.163636-44.218182 27.927273-25.6 51.2-53.527273 69.818182-88.436364 25.6-46.545455 34.909091-97.745455 32.581818-151.272727 0-16.290909-2.327273-32.581818-6.981818-48.872727C797.090909 181.527273 771.490909 134.981818 731.927273 93.090909c-16.290909-18.618182-34.909091-32.581818-55.854545-46.545455-44.218182-27.927273-93.090909-44.218182-144.290909-46.545455-13.963636 0-27.927273 0-44.218182 0-16.290909 2.327273-32.581818 4.654545-48.872727 6.981818-53.527273 11.636364-97.745455 37.236364-137.309091 74.472727-25.6 23.272727-46.545455 51.2-62.836364 83.781818-23.272727 46.545455-32.581818 95.418182-30.254545 146.618182 0 13.963636 2.327273 27.927273 4.654545 41.890909 11.636364 55.854545 34.909091 102.4 74.472727 144.290909 25.6 27.927273 55.854545 48.872727 88.436364 67.490909 0 0 2.327273 0 2.327273 2.327273-11.636364 2.327273-20.945455 6.981818-32.581818 11.636364-11.636364 4.654545-20.945455 9.309091-30.254545 13.963636-58.181818 27.927273-107.054545 65.163636-148.945455 114.036364-23.272727 25.6-41.890909 53.527273-58.181818 83.781818-20.945455 37.236364-34.909091 76.8-41.890909 118.690909-4.654545 18.618182-6.981818 37.236364-6.981818 55.854545C57.018182 970.472727 57.018182 977.454545 57.018182 984.436364c0 6.981818 0 13.963636 0 18.618182C59.345455 1017.018182 70.981818 1024 84.945455 1024L941.381818 1024l0 0c13.963636 0 25.6-11.636364 25.6-25.6C966.981818 993.745455 966.981818 986.763636 966.981818 982.109091zM368.872727 505.018182c-20.945455-16.290909-41.890909-32.581818-58.181818-55.854545-16.290909-23.272727-30.254545-48.872727-39.563636-76.8-6.981818-20.945455-9.309091-41.890909-11.636364-62.836364 0-13.963636 0-27.927273 2.327273-44.218182C266.472727 235.054545 275.781818 207.127273 289.745455 181.527273c13.963636-27.927273 34.909091-51.2 58.181818-69.818182C368.872727 93.090909 392.145455 79.127273 415.418182 69.818182c25.6-11.636364 53.527273-16.290909 83.781818-18.618182 11.636364 0 20.945455 0 32.581818 0 11.636364 0 23.272727 2.327273 34.909091 4.654545 25.6 4.654545 48.872727 16.290909 72.145455 27.927273 20.945455 11.636364 39.563636 25.6 55.854545 44.218182 9.309091 9.309091 18.618182 20.945455 25.6 32.581818 13.963636 20.945455 25.6 41.890909 32.581818 67.490909 6.981818 20.945455 9.309091 41.890909 11.636364 62.836364 0 9.309091 0 20.945455 0 30.254545 0 13.963636-2.327273 25.6-6.981818 37.236364-4.654545 23.272727-13.963636 44.218182-25.6 62.836364-13.963636 25.6-32.581818 46.545455-55.854545 67.490909-16.290909 13.963636-34.909091 25.6-55.854545 34.909091-20.945455 9.309091-41.890909 16.290909-65.163636 20.945455-13.963636 2.327273-27.927273 4.654545-44.218182 4.654545 0 0-2.327273 0-2.327273 0 0 0-2.327273 0-2.327273 0-2.327273 0-4.654545 0-6.981818 0-9.309091 0-18.618182-2.327273-27.927273-2.327273-25.6-4.654545-51.2-11.636364-76.8-23.272727C387.490909 516.654545 378.181818 512 368.872727 505.018182zM112.872727 937.890909c4.654545-25.6 9.309091-48.872727 18.618182-72.145455C150.109091 814.545455 178.036364 765.672727 217.6 726.109091c25.6-27.927273 55.854545-51.2 88.436364-69.818182 27.927273-16.290909 58.181818-30.254545 88.436364-39.563636 20.945455-6.981818 44.218182-11.636364 67.490909-13.963636 13.963636-2.327273 30.254545-2.327273 44.218182-2.327273 0 0 2.327273 0 2.327273 0 4.654545 0 6.981818 0 9.309091 0 0 0 2.327273 0 2.327273 0 4.654545 0 9.309091 0 16.290909 0 16.290909 0 34.909091 2.327273 51.2 6.981818 34.909091 6.981818 69.818182 18.618182 102.4 32.581818 53.527273 25.6 100.072727 60.509091 137.309091 107.054545 32.581818 39.563636 58.181818 83.781818 72.145455 132.654545 6.981818 25.6 13.963636 51.2 16.290909 79.127273 0 4.654545 0 9.309091 0 13.963636L108.218182 972.8C110.545455 961.163636 110.545455 949.527273 112.872727 937.890909z" p-id="7567" fill="#21a325"></path></svg>