<?xml version="1.0" standalone="no"?><!DOCTYPE svg PUBLIC "-//W3C//DTD SVG 1.1//EN" "http://www.w3.org/Graphics/SVG/1.1/DTD/svg11.dtd"><svg t="1539864343594" class="icon" style="" viewBox="0 0 1024 1024" version="1.1" xmlns="http://www.w3.org/2000/svg" p-id="6404" xmlns:xlink="http://www.w3.org/1999/xlink" width="64" height="64"><defs><style type="text/css"></style></defs><path d="M853.333333 42.666667H170.666667C99.946667 42.666667 42.666667 99.946667 42.666667 170.666667v682.666666c0 70.72 57.28 128 128 128h682.666666c70.72 0 128-57.28 128-128V170.666667c0-70.72-57.28-128-128-128z m42.666667 810.666666c0 23.573333-19.093333 42.666667-42.666667 42.666667H170.666667c-23.573333 0-42.666667-19.093333-42.666667-42.666667V170.666667c0-23.573333 19.093333-42.666667 42.666667-42.666667h682.666666c23.573333 0 42.666667 19.093333 42.666667 42.666667v682.666666zM682.666667 469.333333H554.666667V341.333333a42.666667 42.666667 0 0 0-85.333334 0v128H341.333333a42.666667 42.666667 0 0 0 0 85.333334h128v128a42.666667 42.666667 0 0 0 85.333334 0V554.666667h128a42.666667 42.666667 0 0 0 0-85.333334z" p-id="6405" fill="#707070"></path></svg>