<?xml version="1.0" standalone="no"?><!DOCTYPE svg PUBLIC "-//W3C//DTD SVG 1.1//EN" "http://www.w3.org/Graphics/SVG/1.1/DTD/svg11.dtd"><svg t="1522251191958" class="icon" style="" viewBox="0 0 1024 1024" version="1.1" xmlns="http://www.w3.org/2000/svg" p-id="548" xmlns:xlink="http://www.w3.org/1999/xlink" width="200" height="200"><defs><style type="text/css"></style></defs><path d="M1008 944c-9.6 0-16-6.4-16-16l0-128c0-9.6 6.4-16 16-16S1024 790.4 1024 800l0 128C1024 937.6 1017.6 944 1008 944z" p-id="549" fill="#ffffff"></path><path d="M944 976c-9.6 0-16-6.4-16-16l0-64c0-9.6 6.4-16 16-16S960 886.4 960 896l0 64C960 969.6 953.6 976 944 976z" p-id="550" fill="#ffffff"></path><path d="M16 976C6.4 976 0 969.6 0 960l0-96c0-9.6 6.4-16 16-16S32 854.4 32 864l0 96C32 969.6 25.6 976 16 976z" p-id="551" fill="#ffffff"></path><path d="M80 1008c-9.6 0-16-6.4-16-16l0-64c0-9.6 6.4-16 16-16S96 918.4 96 928l0 64C96 1001.6 89.6 1008 80 1008z" p-id="552" fill="#ffffff"></path><path d="M880 1008c-9.6 0-16-6.4-16-16l0-128c0-9.6 6.4-16 16-16S896 854.4 896 864l0 128C896 1001.6 889.6 1008 880 1008z" p-id="553" fill="#ffffff"></path><path d="M816 1008c-9.6 0-16-6.4-16-16l0-64c0-9.6 6.4-16 16-16S832 918.4 832 928l0 64C832 1001.6 825.6 1008 816 1008z" p-id="554" fill="#ffffff"></path><path d="M995.2 99.2C995.2 99.2 995.2 99.2 995.2 99.2c0-3.2-3.2-6.4-3.2-6.4 0 0 0 0 0 0 0 0 0 0 0 0-3.2-3.2-3.2-3.2-6.4-3.2 0 0 0 0 0 0 0 0 0 0 0 0-3.2 0-3.2 0-6.4 0 0 0 0 0-3.2 0-3.2 0-6.4 3.2-6.4 3.2l-150.4 166.4C803.2 236.8 777.6 224 752 224l-80 0 0-3.2 137.6-54.4c3.2-3.2 9.6-6.4 9.6-9.6s0-9.6-3.2-12.8l-92.8-124.8c0 0 0 0 0 0 0-3.2-3.2-3.2-6.4-3.2 0 0 0 0 0 0 0 0 0 0 0 0-3.2 0-3.2 0-6.4 0 0 0 0 0 0 0 0 0 0 0 0 0-3.2 0-3.2 3.2-6.4 3.2 0 0 0 0 0 0-3.2 3.2-3.2 3.2-3.2 6.4L636.8 224 128 224c-44.8 0-80 35.2-80 76.8L22.4 464c0 41.6 35.2 76.8 76.8 80l0 336c0 44.8 35.2 80 80 80l508.8 0c44.8 0 80-35.2 80-80L768 544c0 0 0 0 3.2-3.2 44.8 0 76.8-35.2 76.8-80L832 304c0-3.2 0-6.4 0-9.6 0 0 0 0 0 0l28.8-32 147.2 9.6c6.4 0 9.6 0 12.8-6.4C1024 262.4 1024 259.2 1024 252.8L995.2 99.2zM716.8 57.6l60.8 83.2-96 38.4L716.8 57.6zM595.2 835.2l-64 0 0 32 64 0 0 64-128 0 0-128c0-25.6 22.4-48 48-48l32 0c25.6 0 48 22.4 48 48L595.2 835.2zM736 880c0 25.6-22.4 48-48 48l-60.8 0 0-128c0-44.8-35.2-80-80-80l-32 0c-44.8 0-80 35.2-80 80l0 128-256 0c-25.6 0-48-22.4-48-48l0-320c3.2 0 9.6 3.2 16 3.2 19.2 0 35.2-9.6 48-22.4 12.8 12.8 28.8 22.4 48 22.4s35.2-9.6 48-22.4c12.8 12.8 28.8 22.4 48 22.4s35.2-9.6 48-22.4c12.8 12.8 28.8 22.4 48 22.4 19.2 0 35.2-9.6 48-22.4 12.8 12.8 28.8 22.4 48 22.4 19.2 0 35.2-9.6 48-22.4 12.8 12.8 28.8 22.4 48 22.4s35.2-9.6 48-22.4c12.8 12.8 28.8 22.4 48 22.4 3.2 0 9.6 0 12.8 0L736 880zM784 505.6c0-3.2 0-6.4 0-9.6l0-64-32 0 0 64c0 19.2-12.8 32-32 32s-32-16-32-32l0-64-32 0 0 64c0 19.2-12.8 32-32 32s-32-16-32-32l0-64-32 0 0 64c0 19.2-12.8 32-32 32-19.2 0-32-16-32-32l0-64 0 0-32 0 0 0 0 64c0 19.2-12.8 32-32 32s-32-16-32-32l0-64-32 0 0 64c0 19.2-12.8 32-32 32s-32-16-32-32l0-64-32 0 0 64c0 19.2-12.8 32-32 32s-32-16-32-32l0-64-32 0 0 64c0 19.2-12.8 32-32 32s-32-16-32-32l0-64-32 0 0 64c0 3.2 0 6.4 0 9.6-16-6.4-28.8-22.4-28.8-41.6l25.6-163.2C80 275.2 99.2 256 128 256l624 0C777.6 256 800 275.2 800 304l16 156.8C816 480 803.2 499.2 784 505.6zM886.4 230.4l86.4-92.8 19.2 102.4L886.4 230.4z" p-id="555" fill="#ffffff"></path></svg>