<?xml version="1.0" standalone="no"?><!DOCTYPE svg PUBLIC "-//W3C//DTD SVG 1.1//EN" "http://www.w3.org/Graphics/SVG/1.1/DTD/svg11.dtd"><svg t="1525405464792" class="icon" style="" viewBox="0 0 1024 1024" version="1.1" xmlns="http://www.w3.org/2000/svg" p-id="1484" xmlns:xlink="http://www.w3.org/1999/xlink" width="200" height="200"><defs><style type="text/css"></style></defs><path d="M873.9 461.33l-60.6-31.4-12.7 24.51 60.58 31.4c11.1 5.75 11.1 9.2 0 14.95L543.4 665.49c-17 8.83-46.39 8.83-63.43 0l-317.78-164.7c-11.1-5.75-11.1-9.2 0-14.95L217 457.42l-12.7-24.51-54.84 28.42c-31 16-31 47.93 0 64L467.26 690c25 13 63.84 13 88.85 0L873.9 525.3c30.97-16.04 30.97-47.92 0-63.97z" fill="#B49F7A" p-id="1485"></path><path d="M149.48 378.55l317.79 164.7c25 13 63.84 13 88.85 0l317.78-164.7c31-16 31-47.93 0-64L556.12 149.88c-25-13-63.84-13-88.85 0l-317.79 164.7c-30.96 16.04-30.96 47.92 0 63.97z m12.71-39.46L480 174.39c17-8.83 46.39-8.83 63.43 0l317.79 164.7c11.1 5.75 11.1 9.2 0 14.95L543.4 518.74c-17 8.83-46.39 8.83-63.43 0L162.19 354c-11.1-5.71-11.1-9.16 0-14.91zM873.9 621.29l-59.31-30.74-12.7 24.51 59.3 30.74c11.1 5.75 11.1 9.2 0 14.95L543.4 825.45c-17 8.83-46.39 8.83-63.43 0l-317.78-164.7c-11.1-5.75-11.1-9.2 0-14.95l57.95-30-12.71-24.51-57.95 30c-31 16-31 47.93 0 64L467.26 850c25 13 63.84 13 88.85 0L873.9 685.26c30.97-16.05 30.97-47.92 0-63.97z" fill="#B49F7A" p-id="1486"></path><path d="M449.33 296h51.16v112.8a13.8 13.8 0 0 0 27.61 0V296h45.73a13.8 13.8 0 0 0 0-27.61h-124.5a13.8 13.8 0 0 0 0 27.61z" fill="#B49F7A" p-id="1487"></path></svg>