<?xml version="1.0" standalone="no"?><!DOCTYPE svg PUBLIC "-//W3C//DTD SVG 1.1//EN" "http://www.w3.org/Graphics/SVG/1.1/DTD/svg11.dtd"><svg class="icon" width="200px" height="200.00px" viewBox="0 0 1024 1024" version="1.1" xmlns="http://www.w3.org/2000/svg"><path fill="#fbb03b" d="M620.757333 170.666667c-155.434667 0-285.76 107.2-321.194666 251.669333a182.336 182.336 0 0 0-9.557334-0.256C176.981333 422.08 85.333333 513.706667 85.333333 626.752a203.797333 203.797333 0 0 0 59.946667 144.64 203.733333 203.733333 0 0 0 144.725333 59.861333 204.437333 204.437333 0 0 0 144.789334-60.202666c32.106667-32.106667 50.133333-75.093333 55.317333-122.837334l-74.112-5.824c-16.789333-2.090667-22.186667-14.805333-11.968-28.373333l125.568-155.349333c10.154667-13.546667 23.957333-11.882667 30.613333 3.754666l71.189334 173.973334c6.656 15.637333-1.749333 26.688-18.56 24.618666l-55.125334-5.077333c-6.250667 57.642667-32.192 108.522667-68.458666 148.864A329.962667 329.962667 0 0 0 620.757333 832c182.613333 0 330.666667-148.053333 330.666667-330.666667 0-182.613333-148.053333-330.666667-330.666667-330.666666z"  /></svg>