<?xml version="1.0" standalone="no"?><!DOCTYPE svg PUBLIC "-//W3C//DTD SVG 1.1//EN" "http://www.w3.org/Graphics/SVG/1.1/DTD/svg11.dtd"><svg t="1525503194024" class="icon" style="" viewBox="0 0 1024 1024" version="1.1" xmlns="http://www.w3.org/2000/svg" p-id="6049" xmlns:xlink="http://www.w3.org/1999/xlink" width="200" height="200"><defs><style type="text/css"></style></defs><path d="M517.397333 149.333333c93.866667 0 169.962667 71.509333 169.962667 159.722667a151.338667 151.338667 0 0 1-19.029333 73.429333l137.557333 100.330667a108.821333 108.821333 0 0 1 60.16-17.92c57.834667 0 104.746667 44.074667 104.746667 98.432s-46.912 98.410667-104.746667 98.410667c-57.813333 0-104.746667-44.053333-104.746667-98.410667 0-12.245333 2.432-23.978667 6.784-34.816l-137.557333-100.288a173.866667 173.866667 0 0 1-82.346667 37.866667v153.28c61.162667 13.141333 106.794667 64.554667 106.794667 126.016 0 71.381333-61.610667 129.28-137.6 129.28-75.968 0-137.557333-57.898667-137.557333-129.28 0-61.44 45.610667-112.853333 106.773333-126.016v-153.28a173.824 173.824 0 0 1-82.346667-37.866667l-137.557333 100.288c4.352 10.837333 6.762667 22.570667 6.762667 34.816 0 54.357333-46.890667 98.410667-104.725334 98.410667-57.813333 0-104.725333-44.053333-104.725333-98.410667 0-54.357333 46.890667-98.410667 104.725333-98.410667 22.4 0 43.136 6.613333 60.16 17.898667l137.557334-100.330667a151.466667 151.466667 0 0 1-19.029334-73.429333c0-88.213333 76.117333-159.722667 169.984-159.722667z" fill="#fbb03b" p-id="6050"></path></svg>